<svg width="71" height="113" viewBox="0 0 71 113" fill="none" xmlns="http://www.w3.org/2000/svg">
<rect width="71" height="71" rx="35.5" fill="#CAA241"/>
<path d="M20.8064 32.558C21.8704 32.558 22.6731 32.81 23.2144 33.314C23.7557 33.8087 24.0264 34.546 24.0264 35.526V41H16.4104V35.694C16.4104 35.5633 16.4291 35.4093 16.4664 35.232C16.5037 35.0453 16.5691 34.868 16.6624 34.7C16.7557 34.532 16.8957 34.4013 17.0824 34.308H15.6404L15.8644 32.558H20.8064ZM21.8984 39.25V35.568C21.8984 35.148 21.7911 34.8353 21.5764 34.63C21.3711 34.4153 21.0771 34.308 20.6944 34.308H18.6504C18.6037 34.4387 18.5711 34.5787 18.5524 34.728C18.5431 34.8773 18.5384 35.0313 18.5384 35.19V39.25H21.8984ZM26.4118 41V32.558H28.5398V41H26.4118ZM25.2638 34.308L25.5018 32.558H27.8118V34.308H25.2638ZM34.0682 41V35.568C34.0682 35.148 33.9656 34.8353 33.7602 34.63C33.5549 34.4153 33.2562 34.308 32.8642 34.308H30.0082L30.2322 32.558H32.9762C34.0402 32.558 34.8429 32.81 35.3842 33.314C35.9256 33.8087 36.1962 34.546 36.1962 35.526V41H34.0682ZM44.1761 41V35.568C44.1761 35.148 44.0735 34.8353 43.8681 34.63C43.6628 34.4153 43.3641 34.308 42.9721 34.308H39.0661V32.558H43.0841C44.1481 32.558 44.9508 32.81 45.4921 33.314C46.0335 33.8087 46.3041 34.546 46.3041 35.526V41H44.1761ZM37.5681 41L37.7921 39.25H38.2961C38.4735 39.25 38.6181 39.2173 38.7301 39.152C38.8421 39.0773 38.9261 38.97 38.9821 38.83C39.0381 38.69 39.0661 38.5173 39.0661 38.312V32.964H41.1941V38.256C41.1941 39.152 40.9841 39.8333 40.5641 40.3C40.1535 40.7667 39.5421 41 38.7301 41H37.5681ZM37.7781 34.308L38.0161 32.558H40.2561V34.308H37.7781ZM49.6463 32.558H54.5323L54.3783 33.804L51.8583 41H49.6463L52.0403 34.308H47.5183V30.584L49.6463 30.36V32.558Z" fill="white"/>
<path d="M20.5 112.999C33.3 106.599 32.1667 84.3328 27.5 71.4995C19.3181 49 29.5 74.9994 45.5 68.9994C37 76.9992 44 104.333 50 112.999H20.5Z" fill="#493F3F"/>
</svg>
