<svg width="71" height="127" viewBox="0 0 71 127" fill="none" xmlns="http://www.w3.org/2000/svg">
<rect y="14" width="71" height="71" rx="35.5" fill="#5B9179"/>
<path d="M21.9015 46.698C22.8068 46.698 23.4881 46.922 23.9455 47.37C24.4121 47.8087 24.6455 48.462 24.6455 49.33V55H17.6595V48.784C17.6595 48.672 17.6735 48.5507 17.7015 48.42C17.7295 48.28 17.7715 48.1493 17.8275 48.028C17.8928 47.9067 17.9815 47.818 18.0935 47.762H16.7915L16.9315 46.698H21.9015ZM23.3575 53.936V49.372C23.3575 48.8307 23.2268 48.4293 22.9655 48.168C22.7135 47.8973 22.3261 47.762 21.8035 47.762H19.0455C19.0081 47.8553 18.9801 47.972 18.9615 48.112C18.9521 48.252 18.9475 48.392 18.9475 48.532V53.936H23.3575ZM27.3451 55V46.698H28.6331V55H27.3451ZM26.0711 47.762L26.2251 46.698H28.1851V47.762H26.0711ZM34.734 55V49.372C34.734 48.8307 34.6033 48.4293 34.342 48.168C34.09 47.8973 33.7073 47.762 33.194 47.762H30.31L30.464 46.698H33.278C34.1833 46.698 34.8647 46.922 35.322 47.37C35.7887 47.8087 36.022 48.462 36.022 49.33V55H34.734ZM44.3441 55V49.372C44.3441 48.8307 44.2135 48.4293 43.9521 48.168C43.7001 47.8973 43.3128 47.762 42.7901 47.762H39.1641V46.698H42.8881C43.7935 46.698 44.4748 46.922 44.9321 47.37C45.3988 47.8087 45.6321 48.462 45.6321 49.33V55H44.3441ZM37.5681 55L37.7221 53.936H38.2261C38.4408 53.936 38.6135 53.894 38.7441 53.81C38.8841 53.7167 38.9868 53.5813 39.0521 53.404C39.1268 53.2267 39.1641 52.998 39.1641 52.718V46.978H40.4521V52.788C40.4521 53.5067 40.2795 54.0573 39.9341 54.44C39.5888 54.8133 39.0895 55 38.4361 55H37.5681ZM37.8481 47.762L38.0021 46.698H39.7801V47.762H37.8481ZM48.3441 46.698H53.3981L53.2581 47.51L50.7521 55H49.4221L51.8721 47.762H47.0561V44.514L48.3441 44.36V46.698Z" fill="white"/>
<path d="M20.5 126.999C33.3 120.599 32.1667 98.3328 27.5 85.4995C19.3181 63 29.5 88.9994 45.5 82.9994C37 90.9992 44 118.333 50 126.999H20.5Z" fill="#493F3F"/>
</svg>
