<svg width="86" height="116" viewBox="0 0 86 116" fill="none" xmlns="http://www.w3.org/2000/svg">
<rect width="86" height="86" rx="43" fill="#CAA241"/>
<path d="M23.0317 50.59L22.3037 47.804C22.089 46.9547 21.837 46.1193 21.5477 45.298C21.2677 44.4767 20.9737 43.6647 20.6657 42.862C20.451 42.2833 20.2317 41.728 20.0077 41.196C19.7837 40.6547 19.5457 40.1087 19.2937 39.558H21.6177C21.711 39.754 21.823 40.0247 21.9537 40.37C22.0843 40.706 22.2197 41.07 22.3597 41.462C22.509 41.854 22.6443 42.2227 22.7657 42.568C23.083 43.4267 23.3863 44.29 23.6757 45.158C23.965 46.026 24.2217 46.908 24.4457 47.804L25.1737 50.464L23.0317 50.59ZM23.2697 45.382L22.8217 43.996C23.1763 43.884 23.4563 43.7207 23.6617 43.506C23.867 43.2913 24.021 43.044 24.1237 42.764C24.2357 42.4747 24.3197 42.1573 24.3757 41.812C24.4317 41.4573 24.483 41.0887 24.5297 40.706L24.6697 39.558H26.7697L26.6297 40.874C26.5737 41.378 26.4757 41.8773 26.3357 42.372C26.205 42.8573 26.009 43.3053 25.7477 43.716C25.4957 44.1267 25.1643 44.4767 24.7537 44.766C24.3523 45.0553 23.8577 45.2607 23.2697 45.382ZM27.6505 48.532V46.782L30.9965 46.11C31.3325 46.0353 31.6265 45.928 31.8785 45.788C32.1398 45.6387 32.3638 45.4193 32.5505 45.13C32.7371 44.8407 32.8865 44.4533 32.9985 43.968C33.1198 43.4733 33.2085 42.8387 33.2645 42.064L33.4325 39.558H35.5605L35.3785 42.134C35.3411 42.7033 35.2758 43.2447 35.1825 43.758C35.0985 44.262 34.9585 44.7333 34.7625 45.172C34.5758 45.6107 34.3238 46.0073 34.0065 46.362C33.6891 46.7167 33.2831 47.02 32.7885 47.272C32.2938 47.524 31.6965 47.72 30.9965 47.86L27.6505 48.532ZM29.6525 47.202L28.0705 39.698L30.1565 39.446L31.1925 44.584C31.2578 44.8827 31.2718 45.1907 31.2345 45.508C31.1971 45.816 31.1085 46.1193 30.9685 46.418C30.8378 46.7073 30.6651 46.9687 30.4505 47.202H29.6525ZM41.4743 44.444V39.558H43.6023V44.444H41.4743ZM40.3263 41.308L40.5643 39.558H42.6643V41.308H40.3263ZM46.1227 48V39.558H48.2507V48H46.1227ZM44.9747 41.308L45.2127 39.558H47.5227V41.308H44.9747ZM55.4732 48V42.568C55.4732 42.148 55.3658 41.8353 55.1512 41.63C54.9458 41.4153 54.6518 41.308 54.2692 41.308H49.9152L50.1532 39.558H54.3812C55.4452 39.558 56.2478 39.81 56.7892 40.314C57.3305 40.8087 57.6012 41.546 57.6012 42.526V48H55.4732ZM50.0972 48V43.45L52.2252 43.338V48H50.0972ZM59.7946 44.444V39.558H61.9226V44.444H59.7946ZM58.6466 41.308L58.8846 39.558H60.9846V41.308H58.6466ZM64.331 47.972C64.2657 47.6267 64.2003 47.2673 64.135 46.894C64.0697 46.5113 64.0137 46.138 63.967 45.774C63.9203 45.4007 63.883 45.0553 63.855 44.738C63.8363 44.4207 63.827 44.1453 63.827 43.912C63.827 43.604 63.8643 43.2867 63.939 42.96C64.023 42.6333 64.1863 42.3253 64.429 42.036C64.681 41.7373 65.059 41.4807 65.563 41.266L67.453 41.308C66.9583 41.4667 66.5943 41.6673 66.361 41.91C66.137 42.1527 65.997 42.4233 65.941 42.722C65.8943 43.0207 65.8803 43.324 65.899 43.632C65.9083 43.8653 65.941 44.178 65.997 44.57C66.053 44.9527 66.1183 45.3633 66.193 45.802C66.2677 46.2313 66.333 46.642 66.389 47.034C66.4543 47.4167 66.5057 47.7293 66.543 47.972H64.331ZM63.337 41.308V39.558H67.677L67.453 41.308H63.337Z" fill="white"/>
<path d="M28 115.999C41.0169 111.341 39.8644 95.1367 35.1186 85.7972C26.7981 69.4231 37.1525 88.3443 53.4237 83.9777C44.7797 89.7996 51.8983 109.692 58 115.999H28Z" fill="#493F3F"/>
</svg>
