<svg width="86" height="127" viewBox="96 0 86 127" fill="none" xmlns="http://www.w3.org/2000/svg">
<rect x="96" y="11" width="86" height="86" rx="43" fill="#5B9179"/>
<path d="M120.648 61.688L120.018 59.182C119.785 58.23 119.519 57.3153 119.22 56.438C118.921 55.5607 118.604 54.7067 118.268 53.876C118.035 53.288 117.797 52.7187 117.554 52.168C117.311 51.6173 117.078 51.1273 116.854 50.698H118.282C118.385 50.8753 118.506 51.132 118.646 51.468C118.795 51.804 118.949 52.168 119.108 52.56C119.267 52.952 119.416 53.3347 119.556 53.708C119.892 54.5667 120.214 55.4533 120.522 56.368C120.839 57.2733 121.115 58.2113 121.348 59.182L121.978 61.604L120.648 61.688ZM120.158 56.172L119.878 55.304C120.261 55.164 120.569 54.9633 120.802 54.702C121.035 54.4407 121.217 54.1467 121.348 53.82C121.488 53.484 121.586 53.1433 121.642 52.798C121.707 52.4527 121.759 52.1307 121.796 51.832L121.936 50.698H123.21L123.07 51.972C123.033 52.336 122.958 52.7327 122.846 53.162C122.734 53.582 122.566 53.9973 122.342 54.408C122.118 54.8093 121.829 55.164 121.474 55.472C121.129 55.78 120.69 56.0133 120.158 56.172ZM124.404 59.504V58.426L127.232 57.796C127.643 57.6933 128.011 57.558 128.338 57.39C128.674 57.2127 128.959 56.9513 129.192 56.606C129.435 56.2607 129.631 55.7893 129.78 55.192C129.929 54.5947 130.027 53.82 130.074 52.868L130.214 50.698H131.502L131.376 52.868C131.339 53.6427 131.259 54.3287 131.138 54.926C131.026 55.514 130.867 56.0273 130.662 56.466C130.457 56.9047 130.195 57.278 129.878 57.586C129.57 57.894 129.197 58.1507 128.758 58.356C128.329 58.5613 127.825 58.7293 127.246 58.86L124.404 59.504ZM126.616 58.412L124.782 50.782L126.028 50.614L127.47 56.578C127.517 56.7647 127.531 56.9653 127.512 57.18C127.493 57.3853 127.447 57.5953 127.372 57.81C127.307 58.0153 127.218 58.216 127.106 58.412H126.616ZM137.75 55.332V50.698H139.038V55.332H137.75ZM136.476 51.762L136.63 50.698H138.478V51.762H136.476ZM141.879 59V50.698H143.167V59H141.879ZM140.605 51.762L140.759 50.698H142.719V51.762H140.605ZM150.766 59V53.372C150.766 52.8307 150.636 52.4293 150.374 52.168C150.122 51.8973 149.735 51.762 149.212 51.762H145.026L145.18 50.698H149.31C150.216 50.698 150.897 50.922 151.354 51.37C151.821 51.8087 152.054 52.462 152.054 53.33V59H150.766ZM145.25 59V54.282L146.538 54.184V59H145.25ZM154.594 55.332V50.698H155.882V55.332H154.594ZM153.32 51.762L153.474 50.698H155.322V51.762H153.32ZM158.611 58.986C158.546 58.5847 158.48 58.16 158.415 57.712C158.35 57.264 158.294 56.8253 158.247 56.396C158.2 55.9573 158.163 55.556 158.135 55.192C158.116 54.828 158.107 54.5247 158.107 54.282C158.107 53.9833 158.149 53.6707 158.233 53.344C158.317 53.0173 158.471 52.714 158.695 52.434C158.919 52.1447 159.232 51.9113 159.633 51.734L160.949 51.762C160.473 51.902 160.118 52.1027 159.885 52.364C159.661 52.6253 159.516 52.9147 159.451 53.232C159.386 53.54 159.358 53.8433 159.367 54.142C159.376 54.3847 159.4 54.7067 159.437 55.108C159.484 55.5 159.535 55.9293 159.591 56.396C159.647 56.8533 159.708 57.3107 159.773 57.768C159.838 58.2253 159.894 58.6313 159.941 58.986H158.611ZM157.505 51.762V50.698H161.103L160.949 51.762H157.505Z" fill="white"/>
<path d="M124 126.999C137.017 122.341 135.864 106.137 131.119 96.7972C122.798 80.4231 133.153 99.3443 149.424 94.9777C140.78 100.8 147.898 120.692 154 126.999H124Z" fill="#493F3F"/>
</svg>
