<svg width="56" height="127" viewBox="0 0 56 127" fill="none" xmlns="http://www.w3.org/2000/svg">
<rect width="56" height="86" rx="28" fill="#CAA241"/>
<path d="M17.9232 50.576V39.558H20.0512V50.464L17.9232 50.576ZM16.7892 41.308L17.0132 39.558H19.3232V41.308H16.7892ZM22.8717 48V39.558H24.9997V48H22.8717ZM21.7237 41.308L21.9617 39.558H24.2717V41.308H21.7237ZM27.4902 47.972C27.4249 47.6267 27.3595 47.2673 27.2942 46.894C27.2289 46.5113 27.1729 46.138 27.1262 45.774C27.0795 45.4007 27.0422 45.0553 27.0142 44.738C26.9955 44.4207 26.9862 44.1453 26.9862 43.912C26.9862 43.604 27.0235 43.2867 27.0982 42.96C27.1822 42.6333 27.3455 42.3253 27.5882 42.036C27.8402 41.7373 28.2182 41.4807 28.7222 41.266L30.6122 41.308C30.1175 41.4667 29.7535 41.6673 29.5202 41.91C29.2962 42.1527 29.1562 42.4233 29.1002 42.722C29.0535 43.0207 29.0395 43.324 29.0582 43.632C29.0675 43.8653 29.1002 44.178 29.1562 44.57C29.2122 44.9527 29.2775 45.3633 29.3522 45.802C29.4269 46.2313 29.4922 46.642 29.5482 47.034C29.6135 47.4167 29.6649 47.7293 29.7022 47.972H27.4902ZM26.4962 41.308V39.558H30.8362L30.6122 41.308H26.4962ZM36.6755 39.558C37.7395 39.558 38.5422 39.81 39.0835 40.314C39.6248 40.8087 39.8955 41.546 39.8955 42.526V48H37.7675V42.568C37.7675 42.148 37.6648 41.8353 37.4595 41.63C37.2542 41.4153 36.9555 41.308 36.5635 41.308H34.6315C34.5848 41.3827 34.5382 41.5087 34.4915 41.686C34.4542 41.854 34.4355 42.148 34.4355 42.568V48H32.3075V43.212C32.3075 42.8387 32.3402 42.5027 32.4055 42.204C32.4802 41.896 32.6248 41.6113 32.8395 41.35L32.7275 41.252V39.558H36.6755ZM31.6075 41.308L31.8315 39.558H35.7655V41.308H31.6075Z" fill="white"/>
<path d="M13 126.999C25.8 120.599 24.6667 98.3328 20 85.4995C11.8181 63 22 88.9994 38 82.9994C29.5 90.9992 36.5 118.333 42.5 126.999H13Z" fill="#493F3F"/>
</svg>
