<svg width="56" height="127" viewBox="207 0 56 127" fill="none" xmlns="http://www.w3.org/2000/svg">
<rect x="207" width="56" height="86" rx="28" fill="#5B9179"/>
<path d="M226.036 50.674V39.698H227.324V50.604L226.036 50.674ZM224.762 40.762L224.916 39.698H226.876V40.762H224.762ZM230.559 48V39.698H231.847V48H230.559ZM229.285 40.762L229.439 39.698H231.399V40.762H229.285ZM234.658 47.986C234.593 47.5847 234.527 47.16 234.462 46.712C234.397 46.264 234.341 45.8253 234.294 45.396C234.247 44.9573 234.21 44.556 234.182 44.192C234.163 43.828 234.154 43.5247 234.154 43.282C234.154 42.9833 234.196 42.6707 234.28 42.344C234.364 42.0173 234.518 41.714 234.742 41.434C234.966 41.1447 235.279 40.9113 235.68 40.734L236.996 40.762C236.52 40.902 236.165 41.1027 235.932 41.364C235.708 41.6253 235.563 41.9147 235.498 42.232C235.433 42.54 235.405 42.8433 235.414 43.142C235.423 43.3847 235.447 43.7067 235.484 44.108C235.531 44.5 235.582 44.9293 235.638 45.396C235.694 45.8533 235.755 46.3107 235.82 46.768C235.885 47.2253 235.941 47.6313 235.988 47.986H234.658ZM233.552 40.762V39.698H237.15L236.996 40.762H233.552ZM243.073 39.698C243.978 39.698 244.66 39.922 245.117 40.37C245.584 40.8087 245.817 41.462 245.817 42.33V48H244.529V42.372C244.529 41.8307 244.398 41.4293 244.137 41.168C243.885 40.8973 243.502 40.762 242.989 40.762H240.497C240.441 40.846 240.38 41.0047 240.315 41.238C240.25 41.4713 240.217 41.8353 240.217 42.33V48H238.929V42.652C238.929 42.2413 238.971 41.8727 239.055 41.546C239.139 41.21 239.26 40.9533 239.419 40.776L239.139 40.72V39.698H243.073ZM238.201 40.762L238.341 39.698H241.421V40.762H238.201Z" fill="white"/>
<path d="M220 126.999C232.8 120.599 231.667 98.3328 227 85.4995C218.818 63 229 88.9994 245 82.9994C236.5 90.9992 243.5 118.333 249.5 126.999H220Z" fill="#493F3F"/>
</svg>
